<svg width="160" height="66" fill="none" xmlns="http://www.w3.org/2000/svg"><path fill-rule="evenodd" clip-rule="evenodd" d="M48.03 24.78c3.65 3.98 11.62.38 9.03-4.92-1.72-3.55-4.31-2.73-6.16-1.82-3.7 1.78-4.4 5.05-2.87 6.74zM42.1 22c2.38 4.87-4.93 8.17-8.29 4.52-1.4-1.55-.75-4.56 2.64-6.19 1.7-.84 4.07-1.6 5.65 1.67zm115.84 28.37c-1.22.16-2.5.27-3.72.38h-.04v.06c-2.42 17.36-26.19 20.23-26.78 6.6-.27-6.17 11.6-7.95 23.4-9.1.2-5.4-3.57-4.19-8.15-2.71-4.82 1.54-10.53 3.38-13.46-1.88-5.02-9.03 14.63-17.94 16.73-16.1 6.35 5.56 3.48 6.59-1.2 8.26l-.18.07c-9.5 3.41-5.8 4.1-4.51 3.73 7.57-2.26 14.36-1.04 14.31 8.31l1.81-.13c.66-.04 1.3-.08 1.95-.14 2.3-.21 2.46 2.44-.16 2.65zm-7.52.76c-9.12 1.03-17.01 2.44-16.15 5.35 1.72 5.58 13.58 6.82 16.15-5.35zm-32.63-16.9c-.82 5.65-.8 11.65-.11 11.69.33.02 2.3-.35 2.94-1.5a34.8 34.8 0 001.77-4.28c1.2-3.25 2.5-6.8 4.5-7.82 2.83-1.45-8.1-5.04-9.1 1.91zm-88.9 28.44C20.95 68 14.65 66.83 16.66 51.82c1.45-10.9-.95-11.52-3.12-9.44-2.85 2.7-4.63 9.72-4.69 16.4.26 1.62.6 3.2 1 4.78.34 1.63-4.9 3.32-7.96 1.02C.83 63.79 0 55.87 0 45.13c0-8.82 1.17-14.9 2.23-15.17 8.03-2.2 9.31 1.34 7.58 7.98a47.64 47.64 0 00-1.4 7.92c1.68-4.66 4.08-8.48 6.81-10.17 7.42-4.67 13.6-2.47 12.44 6.8-2.01 16.58-2.18 18.83-.4 17.53 2.24-1.57 3.68 1.24 1.62 2.65zm12.88 2.47c5.4.62 11.04-1.07 13.21-4.55 1.84-2.92.34-3.94-1.78-1.58-4.46 5.12-9.1 2.82-11.04-2.35l.5-.17c9.42-3.77 15.33-14 11.6-19.79-5.13-7.98-21.2-.84-23.2 10.34-1.84 10.35 2.96 17.26 10.7 18.1zm-.4-11.97c5.86-4.16 7.81-13.32 6.2-15.9-1.73-2.7-5.08 1.51-6.25 11.74-.11 1.46-.11 2.87.06 4.16zm35.76-2.12c2.06-.67 4.36-2.55 5.96-5.06.45-.7.82-1.33 1.34-2.98-.06.2-.04.11.02-.11.1-.41.33-1.27.37-1.63 0-.05.06-.34.11-.45 1.23-6.85-3-10.73-8.87-7.81-3.28 1.63-7.35 7.81-9.8 14.5.6-3.6 1.66-7.03 2.84-10.4 2-5.96-1.73-9-8.14-7.25-1.06.28-3.02 8.1-3.02 16.92 0 10.73.56 16.91 1.62 17.7 3.07 2.36 8.53.62 7.97-.95-.21-.6-.37-1.2-.54-1.8l-.01-.06c0-.17 0-.34-.06-.5-1.06-6.97 3.01-16.64 6.36-19.22.89-.73 2.12-.23 2.28 1.68-2.73 1.35-3.62 3.71-3.62 4.72 0 2.76 2.79 3.43 5.19 2.7z" fill="#000"/><path fill-rule="evenodd" clip-rule="evenodd" d="M113.2 27.16c-.47 2.5-.85 5-1.1 7.53-1.07 10.06-.62 19 .6 22.99.73 2.13 3.46 4.94 6.08 2.02 2.85-3.2 5.97-1.35 2.18 2.42-2.34 2.3-6.7 3.88-11.04 3.43-3.13-.4-5.02-2.42-6.14-5.51a8.7 8.7 0 01-1.56 2.3c-2.11 2.2-4.68 3.43-7.97 3.1-6.64-.74-10.54-7.93-8.7-18.16 1.95-10.79 11.32-14.72 16.73-11.86l.33-4.1.06-.42.05-.42c-1.64.36-3.3.68-4.96.95-23.97 4-15.72-15.57-9.87-20.68 6.64-5.73 7.36-1.86 5.3-.56-3.68 2.36-5.3 15.9 5.24 15.9 1.73 0 3.35-.1 4.96-.28 3.3-18.32 13.28-27.2 21.36-24.28 8.98 3.26 8.03 17.54-11.54 25.63zm-10.92 24.4c-.22-3.55-.22-7.54-.17-11.64l.03-.78.03-.68c-3.35-1.52-6.64 3.65-7.48 10.79-.94 8.37 2.8 12.81 4.91 10.79 1.62-1.63 2.46-6.8 2.68-8.49zm24.08-43.17c-1.78-2.64-8.3.56-12.1 14.33 9.54-4.55 13.33-12.42 12.1-14.33z" fill="#000"/></svg>